<svg xmlns="http://www.w3.org/2000/svg" version="1.1" width="128" height="128" viewBox="0 0 60 60" id="javascript-logo">
  <defs id="defs10" />
  <g id="text3757" style="fill:#000000;fill-opacity:1;stroke:none">
    <g transform="translate(0,0.3813557)" id="g3767">
      <path d="M 49.0881,44.303873 C 54.3324,40.234105 57,35.3508 57,29.618644 57,23.886489 54.3324,19.003183 49.0881,14.933415 43.7988,10.899651 37.4511,8.8474576 30,8.8474576 c -7.4511,0 -13.7988,2.0521934 -19.089,6.0859574 C 5.6676,19.003183 3,23.886489 3,29.618644 c 0,5.732156 2.6676,10.615461 7.911,14.685229 5.2902,4.069076 11.6379,6.085958 19.089,6.085958 7.4511,0 13.7988,-2.016882 19.0881,-6.085958 z" id="path4" style="fill:#ffcc00;fill-opacity:1" />
      <g transform="translate(-0.46875,0)" id="g2988">
        <path d="m 22.431641,15.321926 3.945312,0 0,20.870354 c -8e-6,2.70458 -0.67058,4.667904 -2.011719,5.889978 -1.328129,1.222064 -3.470054,1.833099 -6.425781,1.833105 l -1.503906,0 0,-2.554327 1.230469,0 c 1.74479,-4e-6 2.975258,-0.37564 3.691406,-1.126909 0.716142,-0.751275 1.074215,-2.098555 1.074219,-4.041847 l 0,-20.870354" id="path3762" />
        <path d="m 45.205078,21.685206 0,2.614429 c -1.015642,-0.400665 -2.070328,-0.701174 -3.164062,-0.901527 -1.093764,-0.200325 -2.226575,-0.300495 -3.398438,-0.300509 -1.783863,1.4e-5 -3.125008,0.21037 -4.023437,0.631068 -0.885423,0.420727 -1.328131,1.051795 -1.328125,1.893208 -6e-6,0.641097 0.319004,1.146954 0.957031,1.51757 0.638013,0.360622 1.920564,0.706207 3.847656,1.036756 l 1.230469,0.210357 c 2.552069,0.420722 4.361963,1.01673 5.429687,1.788028 1.080711,0.761298 1.621075,1.828103 1.621094,3.200423 -1.9e-5,1.56265 -0.80731,2.799744 -2.421875,3.711286 -1.601577,0.911544 -3.808606,1.367316 -6.621094,1.367316 -1.171883,0 -2.39584,-0.09015 -3.671875,-0.270457 -1.263025,-0.17029 -2.597659,-0.43073 -4.003906,-0.781324 l 0,-2.854836 c 1.328122,0.530902 2.636714,0.93158 3.925781,1.202036 1.289055,0.260443 2.565096,0.390664 3.828125,0.390662 1.692697,2e-6 2.994779,-0.220372 3.90625,-0.66112 0.911444,-0.450761 1.367173,-1.08183 1.367188,-1.893207 -1.5e-5,-0.751268 -0.332046,-1.327243 -0.996094,-1.727928 -0.651055,-0.400671 -2.089856,-0.786325 -4.316406,-1.156959 l -1.25,-0.225382 c -2.226569,-0.360603 -3.83464,-0.911536 -4.824219,-1.6528 -0.989586,-0.751263 -1.484377,-1.778001 -1.484375,-3.080218 -2e-6,-1.582667 0.729164,-2.804736 2.1875,-3.66621 1.458327,-0.861443 3.528638,-1.292172 6.210938,-1.29219 1.328113,1.8e-5 2.578111,0.07515 3.75,0.225382 1.171859,0.150272 2.252587,0.375654 3.242187,0.676146" id="path3764" />
      </g>
    </g>
  </g>
</svg>